HIERARCHY
ROOT root
{
	OFFSET 0.000000 0.000000 0.000000
	CHANNELS 6 Xposition Yposition Zposition Zrotation Yrotation Xrotation
	JOINT lhip
	{
		OFFSET 0.058581 -0.082280 -0.017664
		CHANNELS 3 Zrotation Yrotation Xrotation
		JOINT lknee
		{
			OFFSET 0.043451 -0.386469 0.008037
			CHANNELS 3 Zrotation Yrotation Xrotation
			JOINT lankle
			{
				OFFSET -0.014790 -0.426874 -0.037428
				CHANNELS 3 Zrotation Yrotation Xrotation
				JOINT ltoe
				{
					OFFSET 0.041054 -0.060286 0.122042
					CHANNELS 3 Zrotation Yrotation Xrotation
					End Site
					{
						OFFSET 0.000000 0.000000 0.000000
					}
				}
			}
		}
	}
	JOINT rhip
	{
		OFFSET -0.060310 -0.090513 -0.013543
		CHANNELS 3 Zrotation Yrotation Xrotation
		JOINT rknee
		{
			OFFSET -0.043257 -0.383688 -0.004843
			CHANNELS 3 Zrotation Yrotation Xrotation
			JOINT rankle
			{
				OFFSET 0.019056 -0.420046 -0.034562
				CHANNELS 3 Zrotation Yrotation Xrotation
				JOINT rtoe
				{
					OFFSET -0.034840 -0.062106 0.130323
					CHANNELS 3 Zrotation Yrotation Xrotation
					End Site
					{
						OFFSET 0.000000 0.000000 0.000000
					}
				}
			}
		}
	}
	JOINT lowerback
	{
		OFFSET 0.004439 0.124404 -0.038385
		CHANNELS 3 Zrotation Yrotation Xrotation
		JOINT upperback
		{
			OFFSET 0.004488 0.137956 0.026820
			CHANNELS 3 Zrotation Yrotation Xrotation
			JOINT chest
			{
				OFFSET -0.002265 0.056032 0.002855
				CHANNELS 3 Zrotation Yrotation Xrotation
				JOINT lowerneck
				{
					OFFSET -0.013390 0.211636 -0.033468
					CHANNELS 3 Zrotation Yrotation Xrotation
					JOINT upperneck
					{
						OFFSET 0.010113 0.088937 0.050410
						CHANNELS 3 Zrotation Yrotation Xrotation
						End Site
						{
							OFFSET 0.000000 0.000000 0.000000
						}
					}
				}
				JOINT lclavicle
				{
					OFFSET 0.071702 0.114000 -0.018898
					CHANNELS 3 Zrotation Yrotation Xrotation
					JOINT lshoulder
					{
						OFFSET 0.122921 0.045205 -0.019046
						CHANNELS 3 Zrotation Yrotation Xrotation
						JOINT lelbow
						{
							OFFSET 0.255332 -0.015649 -0.022946
							CHANNELS 3 Zrotation Yrotation Xrotation
							JOINT lwrist
							{
								OFFSET 0.265709 0.012698 -0.007375
								CHANNELS 3 Zrotation Yrotation Xrotation
								End Site
								{
									OFFSET 0.000000 0.000000 0.000000
								}
							}
						}
					}
				}
				JOINT rclavicle
				{
					OFFSET -0.082954 0.112472 -0.023707
					CHANNELS 3 Zrotation Yrotation Xrotation
					JOINT rshoulder
					{
						OFFSET -0.113228 0.046853 -0.008472
						CHANNELS 3 Zrotation Yrotation Xrotation
						JOINT relbow
						{
							OFFSET -0.260127 -0.014369 -0.031269
							CHANNELS 3 Zrotation Yrotation Xrotation
							JOINT rwrist
							{
								OFFSET -0.269108 0.006794 -0.006027
								CHANNELS 3 Zrotation Yrotation Xrotation
								End Site
								{
									OFFSET 0.000000 0.000000 0.000000
								}
							}
						}
					}
				}
			}
		}
	}
}
MOTION
Frames: 11
Frame Time: 0.033333
1.160905 -0.229361 1.001926 8.334475 -1.981260 80.415188 -1.574798 -3.934385 -4.844209 -5.199983 -7.679366 36.304308 1.724650 8.048415 -14.606423 0.000000 -0.000000 0.000000 -0.893410 -4.386349 -3.423274 1.803286 -5.427066 13.196371 2.210933 -5.351782 -3.542550 0.000000 -0.000000 0.000000 3.846576 2.542648 17.224698 0.300619 0.625596 -0.612907 -0.425440 0.304955 3.419373 -0.128742 0.110191 1.636229 -2.797919 -1.296290 13.088278 -28.298719 3.343096 2.085928 -57.291889 -4.285266 9.420365 7.967123 -30.562779 7.993933 -6.196156 -3.813771 -4.342396 26.237689 3.557639 2.403930 51.780944 9.411427 11.289467 -18.269279 30.756379 -12.568214 2.199284 4.255615 -7.412623 
1.162102 -0.240463 1.002012 7.701884 -2.186187 80.713984 -2.285359 -5.049506 -5.286744 -4.611396 -9.926146 30.680608 1.733777 7.646926 -14.830291 0.000000 -0.000000 0.000000 -0.972449 -3.926791 -3.581398 1.836923 -4.752854 14.314670 2.024808 -5.552388 -4.445708 0.000000 -0.000000 0.000000 3.978458 2.697410 17.241487 0.166273 0.751514 -0.786923 -0.544587 0.273136 3.478657 -0.112862 0.353077 1.644653 -2.967185 -1.818644 13.404793 -28.410714 3.374321 1.856799 -57.429901 -4.303489 9.920667 7.995966 -31.345278 7.541188 -5.748889 -4.059252 -4.734304 26.084764 3.595757 2.243190 51.678767 9.343780 11.710645 -18.993414 32.234321 -12.784694 2.393449 4.540207 -7.363779 
1.162651 -0.250870 1.001371 6.911974 -2.172965 80.907672 -2.473715 -6.223890 -5.576595 -4.357190 -13.394952 25.489464 1.387883 6.292785 -14.434579 0.000000 -0.000000 0.000000 -0.770013 -3.643115 -3.888350 1.842140 -3.756871 15.875637 2.229972 -5.254671 -5.862752 0.000000 -0.000000 0.000000 3.994148 2.768278 17.063755 0.197011 0.569078 -0.497973 -0.632962 0.345043 3.488574 0.255995 1.099749 1.536121 -3.238507 -2.253552 13.721259 -28.470993 3.375847 1.581735 -57.550871 -4.370394 10.379380 8.300236 -32.008630 6.671068 -4.928839 -4.000724 -5.054499 26.449689 3.736617 2.220148 51.449094 9.588252 12.065037 -19.708418 33.342353 -13.270575 2.437167 4.747629 -7.197802 
1.163794 -0.261335 1.000702 5.946571 -2.231338 80.947513 -2.530421 -7.572980 -5.801134 -3.938820 -17.019710 21.136560 0.280854 4.333960 -13.086352 0.000000 -0.000000 0.000000 -0.586806 -2.888684 -3.574169 1.766962 -2.705224 16.466171 2.707349 -5.232082 -6.971878 0.000000 -0.000000 0.000000 3.794949 2.947996 17.212027 0.292632 0.377764 -0.329825 -0.583820 0.293895 3.356970 0.342967 1.699653 1.338349 -3.335314 -2.930431 13.872764 -28.441117 3.374862 1.296650 -57.778017 -4.410401 11.043913 8.442772 -32.430802 6.495533 -4.133972 -3.713253 -5.162972 26.570673 3.745631 2.062164 51.807272 9.641804 12.405012 -20.243437 34.035814 -13.582770 2.251812 4.864766 -7.669011 
1.165916 -0.271775 0.999916 4.311805 -2.542764 81.079041 -2.397817 -8.699990 -5.987268 -4.078961 -20.359736 17.463696 -0.886050 2.044911 -11.424165 0.000000 -0.000000 0.000000 -0.614585 -2.183212 -3.351832 1.750482 -1.197172 17.208101 2.634017 -4.649456 -7.710055 0.000000 -0.000000 0.000000 3.266921 3.269039 17.010726 0.402646 0.427979 0.035799 -0.521939 0.295446 3.186738 0.610064 2.252967 1.420935 -3.431190 -3.495752 13.952564 -28.512986 3.246026 1.178917 -57.680625 -4.516621 11.488452 8.721894 -32.066860 6.165173 -4.223418 -4.081106 -5.453869 27.004924 3.688561 2.104395 51.995770 9.526973 12.680633 -20.706678 34.388981 -13.796044 2.519743 5.052353 -8.220803 
1.167742 -0.280840 0.999451 1.832212 -2.586642 81.326094 -1.362459 -9.087233 -6.403005 -4.937462 -23.729811 14.929016 -2.448108 -0.534017 -11.153198 0.000000 -0.000000 0.000000 -0.565652 -1.560375 -3.476953 2.118711 0.268282 18.172863 3.054042 -4.073531 -9.249378 0.000000 -0.000000 0.000000 2.675149 3.623473 16.976941 0.604803 0.704419 0.168921 -0.290808 0.425882 3.028183 0.971803 2.982956 1.608239 -3.495768 -4.237656 13.799041 -28.669024 3.272407 1.034965 -57.667258 -4.568399 11.841160 8.993271 -31.814166 5.822982 -3.635034 -4.141988 -5.815814 27.368092 3.657507 2.052601 52.158597 9.375671 12.868459 -20.172065 34.301782 -13.245888 2.590139 5.189517 -8.786416 
1.170638 -0.291433 0.998795 -1.011178 -2.464535 81.269444 -0.390936 -9.450866 -5.922486 -5.292737 -26.866969 12.678735 -3.907604 -2.733984 -10.461990 0.000000 -0.000000 0.000000 -0.463077 -1.029531 -3.062869 2.453196 1.538030 18.906264 3.263437 -3.241448 -10.166654 0.000000 -0.000000 0.000000 2.376898 3.575734 16.898891 0.700931 0.847021 0.624206 -0.306723 0.711858 2.784785 1.336177 3.504290 1.699821 -3.425320 -4.661939 13.823051 -28.570388 3.445585 1.064315 -57.586742 -4.427772 12.046970 8.869732 -31.772590 5.732881 -3.286382 -3.993505 -6.290494 27.628841 3.971326 2.103630 52.824111 9.301695 12.964194 -19.700197 33.311615 -12.229178 2.783875 5.205640 -8.283428 
1.173960 -0.301470 0.997733 -4.604212 -2.496810 81.285590 0.440330 -9.405737 -5.352298 -5.374699 -28.704413 11.008302 -5.824016 -4.179965 -9.172720 0.000000 -0.000000 0.000000 -0.549245 -0.256365 -2.775322 2.835708 3.054130 19.491058 3.320875 -2.204422 -10.988202 0.000000 -0.000000 0.000000 1.857906 3.781663 16.854864 0.737832 1.136318 0.931317 -0.225461 0.856968 2.602101 1.782691 3.795016 1.808937 -3.323827 -5.104054 13.608249 -28.897634 3.739444 0.703673 -57.192523 -4.215664 12.226226 8.830384 -30.933117 5.493607 -3.061462 -4.201687 -6.333567 28.044466 3.962623 2.064940 53.035339 9.161368 13.290534 -18.407586 32.262752 -11.145896 3.479581 5.131317 -8.119101 
1.177984 -0.313387 0.995886 -8.670967 -2.394299 81.317667 1.154910 -9.270828 -4.242791 -4.973094 -29.357159 9.593276 -5.197769 -4.262107 -8.117852 0.000000 -0.000000 0.000000 -0.562486 0.466790 -2.738997 3.196939 4.536813 20.526538 3.413142 -0.864193 -11.781105 0.000000 -0.000000 0.000000 1.829913 3.741671 16.688903 0.687439 1.558607 0.943702 -0.476959 0.883418 2.525164 1.944383 4.069055 1.977089 -3.353220 -5.562237 13.756288 -28.693125 4.071527 1.070532 -57.006304 -3.935248 12.216225 8.540612 -30.203468 5.330836 -3.183152 -4.229788 -6.867909 28.174599 4.000082 2.192540 53.833453 8.891024 13.610256 -17.421961 31.018646 -9.868795 3.850167 4.925718 -8.375221 
1.182318 -0.324955 0.993821 -12.702925 -2.132333 81.384631 1.763275 -9.037461 -2.993216 -5.044270 -29.646578 8.944429 -5.980410 -4.583869 -6.491349 0.000000 -0.000000 0.000000 -0.240027 1.419809 -2.849644 3.301957 6.213465 21.560490 3.303238 -0.613487 -12.537485 0.000000 -0.000000 0.000000 1.407784 3.304776 16.124210 0.935430 1.626524 1.488060 -0.405046 0.964024 2.336351 2.034011 4.298611 2.033987 -3.482077 -5.487324 13.681451 -29.010018 4.527604 1.076011 -56.717555 -3.482720 12.249736 8.333283 -29.238885 5.558565 -2.992695 -4.070154 -6.538806 28.706104 3.773365 2.290540 53.531031 8.783317 14.001862 -15.850947 30.040001 -8.780492 3.770720 4.724950 -7.878231 
1.188432 -0.336669 0.991783 -16.547688 -2.239918 81.580196 1.412564 -8.134840 -1.913467 -4.917507 -27.564832 9.023270 -3.891347 -3.024256 -7.087671 0.000000 -0.000000 0.000000 -0.549998 2.089971 -3.336771 3.469694 7.402644 23.063431 3.005951 -0.638512 -13.451366 0.000000 -0.000000 0.000000 0.830582 2.954414 15.488584 1.167637 1.484126 1.678603 -0.515563 1.056814 2.524831 2.329154 4.606517 1.901792 -3.614917 -5.319419 14.086619 -28.967236 4.641522 1.291910 -56.757943 -3.491149 12.089146 8.082053 -27.634155 5.805381 -3.577027 -3.997665 -6.837048 29.229478 3.422726 2.282001 53.435855 8.543231 14.343529 -15.424516 28.792728 -8.377263 4.251109 4.159492 -8.025965 
